<svg xmlns="http://www.w3.org/2000/svg" width="136.683" height="103.96"><path data-name="Path 267" d="M73.792 50.542c0-.61.687 0 1.373-.61.61 0 1.22-1.373 1.906-1.981 1.3-1.3 1.3-2.593 2.592-3.889.687-1.9 1.906-3.277 3.279-5.183.609-1.3 1.219-3.279 2.592-4.5-.686-.686-.686 0-1.373.61h-1.219c-1.373.609-1.983 1.3-3.279 1.3 0-1.906 2.592-1.3 3.279-3.279.609 0 .609.687.609.687 1.3-.687 1.983-1.3 3.2-1.3 1.373-.61 1.983-1.983 3.279-2.593 0 1.3-.686 1.3-1.3 1.983 0 0-1.3 1.219-1.983 1.906-1.219 2.592-1.9 5.183-4.5 7.089-1.3 3.964-3.888 6.556-6.479 9.758-.604.002-1.287.612-1.976.002zm62.889-29.117v.61c0 .61-.686.61-.686.61 0 1.371-.61 1.371-.61 1.371-.61 1.22-1.3 1.22-1.3 2.592l-.686.61h-.61c-1.3 3.2-3.887 5.185-5.793 7.776-3.279 1.981-5.183 3.887-9.148 5.793a2.261 2.261 0 01-.61 1.373c-1.3 0-1.3-1.983-1.983-3.279a16.988 16.988 0 01-1.9-3.279 18.832 18.832 0 00-3.279-6.4c0-.687-.61.609-.61.609a6.8 6.8 0 01-.609-2.592s0-1.3-.687-1.3l-.686-1.3h-1.221c-.686 0-1.981 1.3-2.591 1.981-2.592 2.593-5.869 5.795-8.462 8.386-1.3 1.981-3.277 3.2-5.183 5.183a10.883 10.883 0 01-2.592 3.2 11.847 11.847 0 00-2.592 2.592c-1.906 1.373-3.279 3.279-5.184 4.574-1.906 1.981-3.887 2.592-5.87 4.573-1.219.61-2.592 1.906-4.5 3.2l-.686.61c-1.906 1.373-3.812 3.279-6.4 4.574a18.493 18.493 0 01-3.277 3.887h-.687a7.816 7.816 0 00-3.2 3.279l-1.982 1.219a2.5 2.5 0 01-.61 1.373c-1.982 1.906-3.887 3.2-5.183 4.5-.61.686-.61 1.3-1.3 1.3a2.3 2.3 0 00-.687 1.981c-.609 0-1.219.61-1.9.61a6.553 6.553 0 01-3.279 3.887c-.61 1.3-1.906 2.593-2.592 3.889a18.409 18.409 0 00-2.592 4.573l-1.22 1.22c-.686 1.371-.686 2.592-1.373 3.277a17.022 17.022 0 00-1.9 3.279.923.923 0 01-1.3 0 16.067 16.067 0 01-10.978 1.906c-1.372-1.3-3.964-1.3-4.574-3.279 0-1.906 1.3-2.592 1.983-3.812a5.512 5.512 0 001.906-1.981 12.681 12.681 0 011.3-1.981 13.072 13.072 0 002.592-3.2c1.3-1.3 2.592-1.983 2.592-3.2 1.983-.687 2.592-1.983 4.574-3.279a2.468 2.468 0 00.61-1.3 4.8 4.8 0 002.592-2.592c2.592-1.983 5.794-3.887 8.385-6.48v-.686a12.017 12.017 0 003.279-2.592c2.592-1.22 3.888-3.2 5.183-4.5a22.394 22.394 0 013.887-3.279s.61-1.219 1.3-.609c.687-1.983 1.906-2.593 3.279-3.889.61-1.3 1.906-1.906 2.592-3.277 1.22-.61 1.22-1.22 1.22-1.22a7.073 7.073 0 011.981-.686c0-.686.61-1.3 1.3-1.906l.686-.686a.624.624 0 01.61-.687l.61-.609a12.683 12.683 0 011.981-1.3c.61-1.3.61-1.906 1.3-2.593l1.906-1.9a.673.673 0 00.687-.687l1.3-1.906c.609-.686.609-.686 1.3-1.371l.686-1.22c0-.686 1.22-1.373 1.22-2.592 1.371 0 1.371-.686 1.371-.686a4.534 4.534 0 011.906-2.593c1.3-2.592 2.592-3.277 3.279-4.5.609 0 1.219-1.371 2.592-1.371a9.109 9.109 0 011.906-2.592 2.46 2.46 0 011.3-1.906 8.719 8.719 0 013.2-3.279 29.6 29.6 0 013.964-4.5c0-1.3-.687-1.3-.687-3.277 0 0 .687-.61 1.3-1.22a2.494 2.494 0 00.61-1.373c1.373-.609 1.983-1.9 3.279-3.2v-.609a1.407 1.407 0 001.3-1.373c.61 0 .61-.61 1.3-1.219h.686a2.072 2.072 0 011.22-.687 9.919 9.919 0 011.981 1.3c3.2-2.592 5.185 3.2 7.776 4.574 1.3 1.906 3.2 3.2 5.183 5.793a3.5 3.5 0 01-.61 1.981c.61.61 1.22-.686 1.906 0 0 .61.687.61 1.3 1.22.61.686.61 0 1.3 0 .687.686.687 1.373 1.3.686l.61 1.906c1.983 0 2.592.686 3.964 1.373a1.89 1.89 0 001.22.61h.686l.686.609c1.906 0 2.592 1.373 3.812 1.373zm-14.255 7.776h.61c-.61-.687 0-1.983 0-1.983a.843.843 0 01-1.219 0c.002.607-.685 1.98.611 1.98zm-1.981-2.593a.671.671 0 01.686-.686v-5.183c-.685 1.903-1.295 3.886-.685 5.866zm-1.22-2.592c0 1.22-1.371 2.592-.686 3.2.001-.001 1.297-1.983.687-3.203zm-.686-9.758a.624.624 0 00-.686-.61c.002.607 1.373.607.687.607zm-.686 9.072c0 1.906-1.22 3.887-.61 5.87a21.576 21.576 0 00.612-5.875zm-4.5-16.238a2.45 2.45 0 00-1.906-1.219c-.683 1.216 1.223 2.589 1.91 1.216zM110.074 4.5v.687c1.373 0 .686-.687.686-.687zm-.61-1.906v.687c.617-.002.617-.689.004-.689zM86.138 25.921c1.981-1.3 3.2-3.277 4.573-4.5a6.714 6.714 0 011.906-2.592c.686-.687 1.906-1.983 2.592-2.592v-.687a2.087 2.087 0 001.3-.686 73.611 73.611 0 00-9.758 9.761s-1.219.608-.609 1.294zm-5.793 7.089c2.592-1.219 5.183-2.592 7.775-3.811a27.686 27.686 0 014.5-5.185v-.689a3.057 3.057 0 00.686-1.906 2.415 2.415 0 001.22-1.981c1.373-2.593 3.279-3.2 3.964-5.185-1.373 0-1.373.61-1.983 1.3a7.253 7.253 0 01-1.3 1.906s-.686.686-1.3 1.373a10.336 10.336 0 01-2.592 2.592c-1.3 1.906-3.2 3.2-4.574 5.183l-1.9 1.22h-1.3c-.609.686-1.3 1.981-1.982 2.592.009-.002-1.897 1.37-1.21 2.589zm-27.9 30.493a11.644 11.644 0 013.2-2.592c3.279-1.983 5.87-4.574 9.147-7.166a.785.785 0 010-1.22c.61 0 .61-.686.61-.686 1.3 0 .61-.686 1.3-1.3 1.3-.61 1.906-1.983 3.279-2.592a16.445 16.445 0 002.592-3.889c-1.373 0-1.373 1.3-1.981 1.906-1.983 1.983-4.574 3.279-6.481 5.87-.686 0-.686 1.3-1.906 1.3-1.371 2.592-3.964 3.887-5.183 6.479-1.983.687-2.592 1.906-4.574 2.593zM33.006 93.995c-1.906 1.22-2.592 3.812-3.887 5.793v.61c1.3-.61 1.3-1.219 1.3-1.219a8.627 8.627 0 001.3-1.983c.602-1.982 1.289-2.592 1.289-3.202zm7.775-13.645v-1.3a10.32 10.32 0 001.3-1.3v-.687l.61-.609.687-.61a2.4 2.4 0 01.686-1.373 2.125 2.125 0 00.61-1.219c.609-.687 1.3-1.373 1.3-1.373-1.906.686-5.185 1.373-6.48 3.964a2.645 2.645 0 011.983.61c-.687 1.3-1.373 2.592-1.983 3.887a9.222 9.222 0 01-2.592 2.592c-.61 1.906-1.982 2.592-2.592 4.5-1.3 1.373-1.983 3.964-3.2 5.185 0 0-.686 1.981-1.373 1.981-.609 1.981-1.219 2.592-1.906 4.574-.686 0-1.3 1.9-1.9 1.219a39.533 39.533 0 014.5-7.775c1.3-3.812 3.887-5.795 5.183-9a13.5 13.5 0 002.592-3.279 88.59 88.59 0 001.906-3.887c-1.906-.61-3.2 1.3-5.183 1.981a45.03 45.03 0 01-5.808 5.194l.609 1.9c-.609.687-.609 1.906-1.219 2.593 0 1.9-1.373 1.9-1.373 3.887a5.024 5.024 0 01-3.2 3.2l-.61.686v.686a8.425 8.425 0 00-1.981 1.22 2.26 2.26 0 01-.61 1.373s-1.981 1.219-3.277 0c0-1.373.686-2.593 1.906-2.593.686 0 .686 1.22.686 1.22a6.148 6.148 0 003.277-2.592c.61-.61 1.22-1.906 2.593-2.592.609-2.593 1.9-4.5 2.592-7.776 0 0-1.373.686-1.373 1.373l-.61.609c0 .61-1.3 1.3-1.3 1.983-.686 0 0 .61-.686.61 0 .609-.61 1.3-.61 1.981-.61.61-1.3 1.22-1.981 1.906-1.22.686-1.22 2.592-2.592 2.592v-1.3c.686-.61 2.592-1.981 1.981-3.2-1.3 3.2-4.574 5.183-6.479 8.385 0 .61 1.3.61.686 1.3 1.906.687 2.592 1.3 3.812 1.3l1.371-.61a23.456 23.456 0 011.906-1.983c1.906-2.592 4.5-5.183 5.87-7.775a2 2 0 00.61-1.3 17.463 17.463 0 011.3-1.3 2.03 2.03 0 01.686-1.3c1.219-2.593 3.2-5.185 3.812-7.776a1.339 1.339 0 01.686 1.906 35.959 35.959 0 01-2.592 3.964v.609a.624.624 0 00-.687.61s-.609 1.373-1.219 1.373v.61l-.686.609c-.687 1.373-1.906 3.279-2.593 4.574l-.686.61-.61.686c0 .686 0 .686-.609.686a2.073 2.073 0 00-.687 1.22v.686c-.686.687-1.906 1.3-2.592 2.592l-.686.687c2.592 0 3.964.61 5.869 0v-.687c1.3-5.183 4.5-8.461 7.776-11.054a36.246 36.246 0 015.18-9.664zm-.686 3.887c-1.219 0-1.219 1.3-1.219 1.3s.612-.691 1.222-1.301zm62.206-61.594c0-.61-1.221 0-1.221-.61-.686 0 0-.61-.686-1.3-.687 1.3-1.3 2.592-2.592 3.277 0 1.22-1.3 1.22-1.3 3.2l-1.3 1.3c1.3-.686.687-1.906 1.906-1.3a.6.6 0 01-.61.61s-.609.686-1.3 1.373l-.686.609c-.61.61-1.22 1.983-1.906.61 0-1.219 1.3-1.219 2.592-1.219 0-1.373-1.3-.687-1.3-.687a8.218 8.218 0 011.983-2.592l1.906-1.906c0-.686.686-1.371 1.3-1.981l1.3-1.983c.686 0 1.3-1.219 0-1.219.686 1.219-.687 0-1.3.61a6.745 6.745 0 00-.61 1.981c-1.983.61-1.373 1.906-3.279 2.592.687-1.371.687-1.981 1.906-1.981 0-1.983 1.983-3.2 2.592-4.574-.609-.61 0-1.906 0-1.906-1.9.687-2.592 3.279-4.5 3.889 0 0-.686 1.981-1.3 1.981v1.908c-1.3 1.3-3.2 3.277-3.888 5.183a10.232 10.232 0 00-1.906 1.3c-.686.61-.686.61-1.373 1.3-1.9 1.3-4.5 1.906-6.4 2.593-.687.686-.687 1.3-1.373 1.3h-.61c-.61 1.3-1.981 2.592-2.591 3.887 1.981 0 4.574-1.906 5.793-.686 0 1.371-1.219 1.981-1.219 2.592-1.373 0-.687 1.373-1.983 1.981 0 .61 0 .61-.61 1.3a.672.672 0 00-.686.687c-.686 1.219-1.906 1.906-2.592 3.811-1.3.687-1.906 3.279-3.887 2.593.609-1.22 2.591-2.593 3.887-3.812.686-3.964 4.5-5.183 5.183-8.462-1.906 0-2.592 1.3-4.5 1.906 0 0-1.373.686-.686 1.373 0 0 .686-1.373 1.906 0l-.61.609c-.61 0 0 .61 0 .61h-.61c-.686 1.373-1.982 1.981-2.592 3.279-1.373 1.3-2.592 2.592-3.964 3.887a2.161 2.161 0 00-.61 1.3c-.609 0-.609.686-.609 1.3a19.53 19.53 0 00-2.593 1.981 2.256 2.256 0 01-1.371.61c-1.906 1.983-2.592 2.592-3.812 3.2-3.277 2.592-5.87 4.574-9.148 7.166-1.906 1.3-4.5 2.592-5.793 4.574 1.3 0 2.592-1.373 3.2 0a16.563 16.563 0 01-3.2 3.811 3.085 3.085 0 01-1.3 2.592c-.687 1.373-1.3 2.593-1.906 3.964l-1.373 1.22c1.981-1.22 3.964-4.5 5.87-6.4 1.3-2.592 3.887-5.183 5.869-7.166a11.526 11.526 0 012.593-3.2h.609c.61-.686 1.3-1.371 1.983-1.371a10.851 10.851 0 011.219-1.906 2.126 2.126 0 011.373-.687l1.906-1.906c1.906-1.3 2.591-2.592 3.887-3.277 0 0 .61-1.22 1.3-.61a16.467 16.467 0 01-3.277 3.887c-2.592 1.906-5.185 4.5-7.776 6.48a15.742 15.742 0 01-3.812 3.2c-2.592 3.277-5.183 5.87-7.165 9.758.609 0 1.3-.61 1.981-1.3v-.687c.61-.609.61-.609 1.22-.609v-1.3a25.5 25.5 0 002.592-1.906l1.371-1.373.61-.61a.6.6 0 01.61-.609 16.757 16.757 0 003.279-3.964 2.289 2.289 0 001.9-1.22c3.279-1.981 4.574-4.573 7.166-5.87a14.329 14.329 0 014.574-4.5l.61.61.609-.61c.687-.686 1.373-1.371 1.983-1.371h.609a1.8 1.8 0 00.687-1.22h1.3l.61-1.981c1.981 0 1.981-1.3 3.277-1.983v-.609c1.3-1.3 2.592-3.2 3.887-4.574 0-.61.61-1.219 1.3-1.906.686-1.3 1.3-2.592 1.3-2.592a9.424 9.424 0 011.981-3.887 2.161 2.161 0 00.61-1.3l.61-.687c0-.609.686-1.906.686-1.219.686 1.219-.686 1.219-.686 2.592a2.13 2.13 0 00-.61 1.219v.687a30.134 30.134 0 00-1.983 3.887c-.609.61-.609 1.983-1.219 2.592 0 .61-.686.61-.686.61l1.9-1.219a2.693 2.693 0 01.687-1.983c.686-1.3 1.3-2.592 1.3-2.592.61-1.3 1.3-1.3 1.3-1.3a2.387 2.387 0 00.686-1.3s.61-1.3 1.221-1.3c0 0 .686-.687 1.371-1.3a2.131 2.131 0 011.22-.61c.686-.687 1.373-2.592 2.592-1.983a2.05 2.05 0 01-1.906 1.983l-1.906 1.906a11.471 11.471 0 00-3.277 4.5c.686 0 .686-1.22 1.906-1.22a2.357 2.357 0 011.371-1.981l.61-.61c.61 0 .61 0 .61-.686a2.126 2.126 0 001.373-.687v-.609h.609a2 2 0 00.61-1.3 2.38 2.38 0 00.687-1.3h1.3c0-1.981 1.3-1.981 1.3-3.2 0 0-.687 1.22-.687.61.694-1.972 2.6-2.58 2.6-4.563zm6.556-11.588s0-1.981-.687-2.592a7.533 7.533 0 01-.686 3.812c0 .686 0 1.981-.61 1.981 0-1.3.61-3.2 0-4.573a2.477 2.477 0 01-.61 1.981c-.686-.61.61-1.981 0-3.2 0 0 0-1.373-.686-1.373a10.473 10.473 0 01-.686 4.574 1.51 1.51 0 01-.61-1.981l-.61.686a.874.874 0 000 1.3v1.981a2.256 2.256 0 01-1.371.61 2.092 2.092 0 01.686 1.3c0 2.592 1.906 3.279 3.277 5.185h.61s.61-3.889.61-5.185a8.718 8.718 0 011.375-4.507zm5.183 13.57a93.074 93.074 0 001.219-12.96c-.609-.61-1.219-.61-1.9-1.3-.687 1.3 0 3.277-.687 4.5 0 .686 0 1.373-.609 1.373 0-1.983.609-4.574.609-7.166-1.906.61 0 3.887-1.906 3.887-.686-.686.687-2.592 0-3.887-.686 1.981 0 4.573-1.3 5.793 0-1.906.61-3.812.61-6.4v-.686c-1.219 3.277-1.219 6.479-1.906 9.681 0 0 1.3 0 .687.686.609 1.906-.687 3.889 0 5.87.609-1.981 0-4.573 1.219-5.87v-1.9c0-1.373 0-2.593 1.373-2.593 0 1.906-.687 3.812-.687 5.795v1.977c0 1.906-1.3 4.5.687 5.793 0-1.3 0-3.2.61-3.887.609 1.906-1.3 4.5 0 6.479a8.691 8.691 0 00.609-3.887 2.969 2.969 0 000-2.592c1.375-.689.689 1.902 1.375 1.294zm.61 3.887v1.3zm.609-1.906s0 1.906.687 2.593c0-1.373.686-1.983.686-3.279a23.08 23.08 0 00.61-6.479c-.61 1.981-.61 4.573-1.3 5.793-1.3 0-.687-2.592-.687-2.592a17.623 17.623 0 001.373-6.4l.61-.687a3.317 3.317 0 01-.61-1.906c-.686-.686-.686.61-.686.61 0 5.793-1.3 10.368-1.3 14.255.011-.003.011-1.909.62-1.909zm19.515-4.573c-1.371 0-1.982-.61-3.277-.61a6.724 6.724 0 00-1.906 2.592 2.483 2.483 0 01-1.981 1.22c0 1.371-1.3 1.981-2.593 1.981 0 0 .61-1.3-.609-.61a2.132 2.132 0 01.609 1.22l-1.3 1.981a13.622 13.622 0 01-1.9 1.3l-2.593 1.3c-1.371 1.3-2.592 1.981-3.964 3.2a9.157 9.157 0 001.373 3.964c1.906 0 2.592-1.371 3.812-1.371 0-.61 0-1.22.686-1.22h.687a30.52 30.52 0 015.183-3.964c1.219-1.906 3.2-3.811 5.183-6.4a.672.672 0 00-.686-.686c.686-1.3 1.3-1.3 1.906-.686.002-1.231 1.377-1.919 1.377-3.212zM62.812 50.544c0-.61-.61 0-.61-.61l-2.592-1.981a16.446 16.446 0 00-2.592-3.889c-.686-1.9-1.983-3.277-3.279-5.183-.686-1.3-1.3-3.279-2.592-4.5.686-.686.686 0 .686 0a4.821 4.821 0 001.906.61c1.3.609 1.906 1.3 3.279 1.3 0-1.906-2.592-1.3-3.279-3.279a.872.872 0 01-1.3 0 7.037 7.037 0 00-2.592-.609c-1.3-.61-1.981-1.983-3.2-2.593 0 1.3.61 1.3 1.22 1.983l1.981 1.906c1.3 2.592 2.592 5.183 4.574 7.089 1.219 3.964 3.811 6.556 6.4 9.758.011-.004 1.383.606 1.993-.004zm1.981-.61l-.686.61c-.686-.61-1.3-1.983-1.906-1.983-.686-1.9-1.981-2.592-2.592-3.811a.672.672 0 00-.686-.687 2.381 2.381 0 01-.687-1.3c-1.219-.609-.609-1.981-1.9-1.981 0-.61-1.3-1.22-.687-2.592 1.373-1.22 3.279.686 5.185.686-.61-1.3-1.906-2.592-2.593-3.887h-.609a2.161 2.161 0 01-.61-1.3 21.045 21.045 0 01-6.556-2.593c-.61-.686-1.22-.686-1.906-1.3a2.46 2.46 0 00-1.906-1.3c-.686-1.906-2.592-3.887-3.964-5.183v-1.3c-.61-.61-1.219-1.3-1.219-1.3-1.983-1.906-2.592-4.5-4.574-5.185 0 0 1.3 1.3 0 1.906.61 1.373 2.592 2.592 2.592 4.574 1.3 0 1.3.61 1.983 1.981-1.983-.686-1.373-1.981-2.592-2.592a2.127 2.127 0 00-1.372-.686c-.61-1.906-1.22-.687-1.22-1.906-1.371 0-.686 1.219 0 1.219l1.22 1.983a24.369 24.369 0 011.981 1.981l1.3 1.906 1.906 1.906a1.247 1.247 0 00-1.219 1.373c1.219 0 2.592 0 2.592 1.219-.686 1.373-1.373 0-1.983-.61l-.609-.609a2.126 2.126 0 00-1.373-.687 2.468 2.468 0 01-.61-1.3c1.3-.61 1.3.61 1.983 1.3l-1.373-1.3c0-1.981-1.219-1.981-1.219-3.2a6.145 6.145 0 01-2.593-3.277c-.686.686 0 1.3-.686 1.3 0 .61-1.3 0-1.3.61.61 1.981 2.592 2.592 2.592 4.573v-.61c0 1.22.61 1.22.61 2.593a2.5 2.5 0 001.372.609v.61l1.219 1.983h.686v.609l.687.687c.609.686.609.686 1.219.686v.61a4.634 4.634 0 012.592 1.981s.687 1.22 1.372 1.22a12.265 12.265 0 00-3.277-4.5l-1.906-1.906a2.114 2.114 0 01-1.983-1.983c1.3-.609 1.983 1.3 2.592 1.983a2.475 2.475 0 011.3.61 2.148 2.148 0 001.3.609 2.263 2.263 0 01.609 1.373c.687 1.219 1.372 1.219 1.372 1.219l1.22 1.373a12.122 12.122 0 01.686 3.2c.686 0 1.3.61 1.3 1.983.61.609 1.3 1.219 1.981 1.9a2.382 2.382 0 01-.686-1.3 9.853 9.853 0 00-1.3-2.592c-.61-1.3-1.3-3.2-1.981-3.887v-.687a2.13 2.13 0 00-.61-1.219c0-1.373-1.3-1.373-.61-2.592 0-.687.61.61.61 1.219.61 0 .61.687.61.687a.672.672 0 00.686.686c.686 1.219 1.3 2.592 1.906 3.812a28.8 28.8 0 001.371 3.277c.61.687 1.22 1.3 1.22 1.906 1.373 1.373 2.592 3.279 3.964 4.574v.609c1.219.687 1.219 1.983 3.2 1.983l.61 1.981h.686l-.686.61a12.535 12.535 0 01-3.812-2.592 53.872 53.872 0 00-5.185-4.574 5.513 5.513 0 00-1.981-1.906c-1.981-1.9-2.592-2.592-3.2-3.887-1.981-1.981-3.277-3.2-5.183-5.183-2.592-2.592-5.87-5.793-8.462-8.386a120.521 120.521 0 01-1.906-1.981h-1.982c-.61 0 0 1.3-.61 1.3l-.687.686v2.593c-.686.609-.686-.687-1.3 0a45.484 45.484 0 00-3.2 6.4 68.713 68.713 0 01-1.371 2.593c-1.22 1.981-.61 3.964-2.592 3.964a1.031 1.031 0 010-1.373 52.649 52.649 0 01-9-5.793c-2.592-2.592-5.183-4.574-6.556-7.776h-.609l-.61-.61c0-1.371-.686-1.371-1.373-1.981a2.146 2.146 0 00-.61-1.3 2 2 0 00-.609-1.3v-.61h.609c1.3 0 1.983-1.373 3.889-1.373l.686-.609c-.686.609 0 .609 0 .609l.61-.609a2.146 2.146 0 001.3-.61c1.3-.687 1.906-1.373 3.887-1.373l.61-1.906c.686.687 1.373 0 1.373-.686.609 0 .609.686 1.219 0 .687-.61 1.373-.61 1.983-1.22a.923.923 0 001.3 0 2.122 2.122 0 01-.687-1.371c1.983-3.2 3.964-4.5 5.87-6.4 1.906-1.373 3.887-7.166 7.089-4.574.687-.609 1.373-1.3 1.983-1.3a2.087 2.087 0 001.3.687h.686c.61.609.61 1.219 1.22 1.219a1.476 1.476 0 001.371 1.373v.609c1.22 1.3 1.906 2.593 3.2 3.2l.61.687c.686 1.3 1.373 1.3 1.373 1.3.609 2.592-.687 2.592-.687 3.887 1.3 1.3 3.279 2.592 4.5 4.5a9.226 9.226 0 011.983 2.592c1.3.687 1.981 1.373 1.981 2.593 1.22.686 1.906 1.371 1.906 2.592a2.33 2.33 0 011.906 1.371c1.373 1.22 2.592 1.906 3.279 3.812a5.694 5.694 0 012.592 2.592 2.128 2.128 0 01.686 1.373c.61 1.219 1.906 1.906 2.592 2.592 0 0 0 1.22.61 1.22a2.256 2.256 0 00.61 1.371l1.371 1.906c.61 0 .61.687.61.687l1.983 1.9a2.151 2.151 0 01.609 1.3l-.609.61H66.03c-.61-.61-.61-1.906-1.906-1.906a2.307 2.307 0 001.3 1.906v1.983a2 2 0 01-.61-1.3c-1.371-1.3-2.592-1.906-3.277-3.279v-.61s-1.3 0-.686-.609c.686-1.373.686.609 1.981 0 .61-.687-1.3-.687-1.3-.687-1.3-1.3-2.592-2.592-4.5-2.592 1.219 3.279 4.5 4.5 5.793 8.462a8.682 8.682 0 011.971 2.631zM27.135 3.281a.672.672 0 01.686-.687c-.683-.002-1.293.685-.683.685zm-1.219 1.906c.609 0 .609 0 1.219-.687a2.13 2.13 0 00-1.219-.61zm-2.593 1.9c.61 1.373 2.593 0 1.906-1.219-1.293.002-1.293.612-1.903 1.221zM19.36 29.195c.686-1.983 0-3.964-.61-5.87.003 1.3.613 3.89.613 5.873zm-1.22-14.942a.6.6 0 00.61-.61.6.6 0 00-.607.612zm0 12.96c.61-.61 0-1.981-.686-3.2-.684 1.22.003 3.202.689 3.202zm-2.589-3.888v2.592c.61 0 .61.686.61.686.609-1.981 0-3.963-.61-5.869zm-1.983 5.87h1.3v-1.98s-.687.61-.687 0a3.506 3.506 0 01-.613 1.983zm8.386 6.4c-1.22-1.219-2.592-1.9-3.812-3.2 0 0-1.981-.61-1.981-1.3-1.3 0-1.983-.686-3.2-1.3l-1.373-1.981c0-.61 1.373-.61 1.373-.61-1.373-1.3-1.373 0-1.373 0-1.22 0-2.592-.61-2.592-1.981-1.22 0-1.22-.61-1.22-.61a21.615 21.615 0 00-1.981-2.592c-1.983-.61-2.592 0-3.887 0 0 1.3 1.3 1.981 1.3 3.2a1.3 1.3 0 011.981 0 2.394 2.394 0 00-.686 1.371 48.413 48.413 0 005.869 6.4 29.753 29.753 0 014.5 3.964h1.3a2.132 2.132 0 01.609 1.22c.687 0 1.372 1.371 3.279 1.371.674-1.354 1.285-2.574 1.895-3.947zm0-7.089c.686-3.887-1.22-8.462-1.22-13.645 0 0 0-1.906-1.371-1.906a1.89 1.89 0 010 2.592.672.672 0 01.686.687c0 2.592.686 4.5.686 6.4.61 0 1.22 2.592 0 2.592-.686-1.22-.686-3.812-1.371-5.793a20.642 20.642 0 00.686 6.479c.686 1.3.686 1.906 1.3 3.279.61-.687-.61-1.983 0-2.593 1.29.007.605 1.227.605 1.913zm.686 1.3s0-1.3-.686-1.3v1.3zm5.87-12.349c-.687-3.2-.687-6.4-1.373-9.681v.686c-.61 2.592.686 4.5 0 6.4-1.219-1.22-.61-3.812-1.219-5.793-.687 1.3.609 3.2 0 3.887-1.373 0 0-3.277-1.983-3.887a30.949 30.949 0 01.61 7.166 2.5 2.5 0 01-.61-1.373c-.61-1.22 0-3.2-.61-4.5a9.853 9.853 0 00-1.981 1.3 83 83 0 001.3 12.96c.686.61 0-1.981 0-1.981 1.3.686.686 1.981 1.3 3.277 0 1.3.61 2.592.61 3.887 1.373-1.981-.61-4.573 0-6.479 1.373.686.686 2.592.686 3.887 1.906-1.3.687-3.887.687-5.793a2.5 2.5 0 01.609-1.373c-.609-2.592-1.3-4.5-1.3-6.4 1.3 0 1.3 1.22 1.3 1.906v2.592c1.3 1.3 1.3 3.889 1.3 5.87.687-1.981-.686-3.964 0-5.87a.672.672 0 01.675-.688zm5.793-2.592a2.13 2.13 0 01-.61-1.22v-1.981c0-.61-.686-.61-.686-.61-.687-.686 0-1.981-.687-1.981 0 0 .687 1.981-.609 2.592 0-1.3-.61-3.2-.61-4.574l-.686 1.373c-.687 1.22.686 2.592 0 3.2a2.3 2.3 0 01-.687-1.981c-.609 1.371.687 3.277 0 4.573a6.753 6.753 0 01-.609-1.981c-.61-1.22 0-2.592-.61-3.812-.687.61 0 1.906 0 1.906 0 1.906.61 3.277.61 5.183a24.268 24.268 0 00.609 3.889l.687 1.3c1.3-1.906 3.277-2.593 3.277-5.185a.624.624 0 01.612-.69zm7.166.686v.687c1.219.609 1.906 1.9 2.592 2.592a8.716 8.716 0 011.906 2.592c1.906 1.22 3.277 3.2 4.5 4.5 1.371-.686-.61-1.3-.61-1.3-2.592-3.887-6.479-7.166-9.072-10.368-.004.001-.004 1.297.685 1.297zm13.568 14.866a10.226 10.226 0 01-1.3-1.906l-1.906-.686a3.313 3.313 0 01-1.981-1.22c-1.3-1.981-3.2-3.277-4.574-5.183-1.219-.686-1.9-1.981-2.592-2.592l-1.219-1.373a1.8 1.8 0 01-.687-1.219c-1.3-1.373-1.3-1.983-2.592-1.983.687 1.983 2.592 2.592 3.279 5.185 0 0 1.219 1.3 1.219 1.981a5.425 5.425 0 001.983 1.906v.686c1.3 1.906 2.592 3.2 3.888 5.185 2.592 1.219 5.183 2.592 7.776 3.811.69-1.22-.682-1.907-1.292-2.592zm68 69.981c-.61 1.983-3.2 1.983-4.5 3.279-3.279.686-7.776 0-10.368-.687l-1.906-1.219a16.667 16.667 0 00-1.981-3.279 8.673 8.673 0 00-1.3-2.592 10.154 10.154 0 00-1.3-1.906 14.63 14.63 0 00-2.592-4.573c-.61-1.3-1.983-2.593-2.593-3.889a6.458 6.458 0 01-3.2-3.887.624.624 0 01-.686-.61c-1.3-.686-1.3-1.371-1.3-1.981-1.3 0-1.3-.61-1.981-1.3-1.22-1.3-3.2-2.592-4.5-4.5-.687 0-.687-.687-1.3-1.373a3.307 3.307 0 00-1.982-1.219 5.875 5.875 0 00-2.592-3.279h-1.22a16.471 16.471 0 01-3.277-3.887c-2.592-1.3-4.5-3.2-6.48-4.574v-.61a.6.6 0 00.61-.609h1.373c0 .609.61 1.219 1.219 1.9 2.592 1.3 3.964 3.889 6.556 5.185.61.686 1.22 1.906 2.593 1.906.609 1.371 2.592 2.592 3.811 3.964v.609l.687.61a22.5 22.5 0 011.3 1.373c.609.61 1.981 1.219 2.592 1.906v.686s1.3.61 1.3 1.219a.672.672 0 00.686.687 1.326 1.326 0 001.221 1.3c-1.906-3.887-4.5-6.48-7.089-9.758a15.992 15.992 0 01-3.889-3.2c-2.592-1.981-5.183-4.574-7.775-6.48a4.392 4.392 0 00-1.983-1.9c-.609-1.373 0-1.373 0-1.373a7.989 7.989 0 013.279 3.277s1.906.687 1.906 1.3c.686.609 1.371.609 1.981 1.3l1.983 1.906 1.219 1.371h.686a13.072 13.072 0 012.593 3.2 36.294 36.294 0 016.479 7.166c1.982 1.906 3.2 5.183 5.183 7.089l-.609-1.906a11.779 11.779 0 01-2.593-3.964 3.134 3.134 0 01-1.371-2.592 8.691 8.691 0 01-2.592-3.811c0-1.373 1.371 0 2.592 0-1.221-1.983-3.812-3.279-5.793-4.574-2.593-2.592-5.793-4.574-9.072-7.166a10.586 10.586 0 01-3.279-2.592l-1.219-1.22.61-.686a73.06 73.06 0 007.775 6.48 9.778 9.778 0 013.2 2.592v-.61c-1.906-1.373-2.592-2.592-3.811-3.279-1.373-1.9-3.279-3.277-4.574-5.183s1.3 0 1.3-.686c1.3 1.371 1.906 2.592 3.279 3.277.609 1.3 1.9 1.906 2.592 3.889 1.219-.61 1.219.609 1.906.609 1.3 1.373 1.9 1.983 3.277 3.279 1.906 1.3 3.2 3.277 5.183 4.5.61.686 1.906 1.981 2.593 2.592a1.8 1.8 0 011.219.686c1.983 2.593 5.185 4.5 7.776 6.48a5.348 5.348 0 002.592 2.592c.686.61.686.61 1.372 1.3 1.219 1.3 1.9 2.592 3.811 3.279.687 1.219 1.983 1.906 2.592 3.2a15.123 15.123 0 002.593 3.2 2.123 2.123 0 01.686 1.371l2.592 2.592c.692 1.211 1.911 1.897 1.911 3.803zM97.118 84.237c0 .61.687.61.687.61zm10.368 15.551c-1.221-1.981-1.906-4.573-3.812-5.793a6.535 6.535 0 01.61 2.592 4.924 4.924 0 011.3 2.593 1.325 1.325 0 011.3 1.219c.603-.001.603-.001.603-.612zm14.332 0c-1.983-3.2-4.574-5.183-6.557-8.385-.609 1.22 1.373 2.592 1.373 2.592l.61.61v1.3c-1.3 0-1.3-1.906-2.592-2.592l-1.3-1.906c-.687-.686-1.3-1.373-1.3-1.981l-.61-.61c0-.686-.687-1.373-1.373-1.983a.6.6 0 00-.61-.609 1.405 1.405 0 00-1.3-1.373c.687 3.279 1.906 5.183 2.591 7.776 1.3.686 1.906 1.981 2.593 2.592 1.3 1.371 1.9 1.981 2.592 2.592 1.3 0 .686-1.22.686-1.22a2.36 2.36 0 012.592 2.593 2.268 2.268 0 01-3.277 0 2.393 2.393 0 00-.687-1.373 1.885 1.885 0 00-1.219-.61c-.686-.61-.686-.61-.686-1.3s-1.3-1.906-2.593-1.906c0-1.371-.686-1.981-1.3-1.981 0-1.983-.609-1.983-.609-3.887a2.54 2.54 0 01-1.372-2.593.924.924 0 010-1.3 209.59 209.59 0 00-5.794-5.793c-1.3-.686-3.2-2.592-5.185-1.981.61 1.3 1.3 2.592 1.983 3.887.61 1.3 1.906 1.906 2.592 3.279 1.221 3.2 3.812 5.183 5.183 9a23.721 23.721 0 014.5 7.775l-1.3-1.219c-1.3-1.983-1.981-2.593-2.592-4.574l-1.276-1.983c-1.3-1.22-1.906-3.812-3.277-5.185-.61-1.906-1.906-2.592-2.593-4.5a11.9 11.9 0 01-2.592-2.592 9.6 9.6 0 01-1.219-3.887 2.124 2.124 0 011.219-.61c-1.219-2.592-3.812-3.279-5.793-4.574l.61 1.983.686.61a6.232 6.232 0 01.686 1.981l.61.61.61.609v.687a2.125 2.125 0 001.373.686l.609 1.906a83.947 83.947 0 014.574 9.681c3.2 2.593 6.4 5.87 7.089 11.054.687 0 .687 0 .687.687 1.9.61 3.811 0 5.794 0 .609 0-.61-.687-.61-.687-.686-1.3-1.981-1.9-2.592-2.592v-.686c0-.61-.687-.61-.687-.61a2.03 2.03 0 00-.686-1.3s-.61-.686-1.219-1.3c-.687-1.3-1.983-3.2-2.593-4.574l-.686-.609v-.61a2.382 2.382 0 00-1.3-.686l-.61-1.3v-.609a12.851 12.851 0 01-1.982-3.279s-1.3-1.906 0-2.592c.61 2.592 2.592 5.183 3.887 7.776l.686.686c.61 1.219 1.221 1.219 1.221 1.219l.686 1.983c1.3 2.592 3.889 5.183 5.87 7.775.61.61 1.219 1.3 1.906 1.983h1.3v.61c1.3 0 1.981-.61 3.887-1.3-.686-.671.687-.671.687-1.282z" fill-rule="evenodd" opacity=".18"/></svg>