<svg xmlns="http://www.w3.org/2000/svg" width="223.588" height="55.726"><g data-name="Group 9"><path data-name="Path 268" d="M66.169 51.84l.61-1.3.61-.686a.671.671 0 00.686.686v.687s0 1.219-.686 1.219a8.4 8.4 0 01-1.22 1.981l-1.981.61a7.8 7.8 0 01-3.888.687 12.955 12.955 0 01-5.185-1.3c-1.906-.609-3.277-1.3-3.887-2.592-1.3-.609-1.983-1.981-3.2-3.887-.686-1.3-1.373-2.592-1.373-2.592-.61-3.279-1.219-4.5-1.219-5.87v-4.5c0-1.906 0-3.887.609-5.183 0-1.906.61-3.279.61-4.5.687-1.373 1.373-2.593 1.983-3.964h-1.3c-1.3 0-2.593.686-3.889.686-1.3.686-2.592.686-3.888 1.3l-2.592 2.592s-1.906 1.983-3.279 3.2c-1.219 1.373-3.2 1.983-4.5 3.279-1.906 1.3-3.277 2.592-5.183 3.277a26.541 26.541 0 01-5.87 2.593 12.375 12.375 0 01-5.183 1.219 13.325 13.325 0 01-5.185-1.219 6.645 6.645 0 01-3.811-3.279 9.472 9.472 0 01-2.592-4.5 18.7 18.7 0 01-1.372-5.87 18.689 18.689 0 011.372-5.869c1.219-1.906 2.592-3.812 3.811-5.795a53.873 53.873 0 015.185-4.573 29.875 29.875 0 015.869-3.2 29.549 29.549 0 017.091-2.592c1.981 0 3.963-.61 5.869-.61a9.517 9.517 0 014.5 1.219 15.846 15.846 0 013.279 2.593l1.3 2.592a11.214 11.214 0 01.61 2.592v1.373h-1.22c-.686-.687-1.373-1.983-1.982-2.592-.61-.687-1.983-.687-3.2-1.373-1.373-.61-2.592-.61-5.185-.61a26.185 26.185 0 00-6.556.61c-1.9.686-3.811 1.373-5.793 1.981-1.981 1.3-3.888 1.983-5.183 3.2a19.935 19.935 0 01-3.2 2.592c-1.983 2.593-3.279 3.964-3.279 5.185a10.432 10.432 0 00-1.3 3.277 14.429 14.429 0 001.3 5.185l1.3 1.3a8.583 8.583 0 001.3 1.981 14.511 14.511 0 002.592.61 13.458 13.458 0 003.277.61 20.189 20.189 0 005.793-1.22 25.948 25.948 0 005.795-2.592 13.742 13.742 0 005.183-3.277 10.386 10.386 0 003.964-2.593c-.687 0-1.983.687-3.279.687h-2.592a5.7 5.7 0 01-4.5 0c-1.373-.687-2.592-1.373-2.592-1.373-1.983-1.22-2.592-1.906-2.592-3.2-.687-.61-.687-1.3-.687-2.592v-1.3l.687.686c.609.61.609 1.22 1.906 1.22a6.16 6.16 0 002.592.686 21.1 21.1 0 005.869.686h5.185c1.219 0 2.592-.686 3.811-.686a5.572 5.572 0 003.279-.686 74.307 74.307 0 007.776-7.776c1.3-1.219 1.9-2.592 3.277-3.2.61-1.3 1.906-1.981 2.592-3.2a13.4 13.4 0 001.906-2.592A2.4 2.4 0 0155.81.605c0-.609 0-.609.61 0a10.272 10.272 0 011.983 1.373l1.906 1.906a6.763 6.763 0 01.686 3.277v1.906c-.686.687-.686 1.3-1.373 1.906-.61 1.373-.61 1.981-1.219 3.279-.687.686-.687 1.3-1.373 1.9l5.183-.609h1.983v-.61h1.3v.61a2.387 2.387 0 01-.686 1.3c-1.22 0-1.906.686-3.2 1.3h-1.983l-1.906.61c-.686 0-1.3.686-1.906.686l-.686 1.3a25.584 25.584 0 00-2.592 5.793 5.816 5.816 0 00-.686 3.279 10.017 10.017 0 01-1.22 2.592 5.81 5.81 0 01-.686 3.277v1.906a26.889 26.889 0 001.3 8.462 13.3 13.3 0 002.592 5.185c.61 1.219 1.982 1.9 3.2 2.592a10.4 10.4 0 001.981 1.219h1.983a2.478 2.478 0 001.906-.61l1.3-.609 1.981-.687zm-16.237-34.3s.686-.686 1.3-1.373c0-.609.61-1.219.61-1.9.686-.687.686-1.906 1.371-2.593a2.146 2.146 0 00.61-1.3 42.388 42.388 0 013.887-5.793L44.062 18.14l3.964-.61z"/><path data-name="Path 269" d="M72.573 40.173c.686 0 1.372-.686 2.592-1.3.687-1.3 1.983-1.981 3.279-3.2 1.3-1.371 2.592-3.277 3.888-4.573 1.3-1.983 2.592-3.2 3.887-5.185l.687-.609h.609v.609a2.153 2.153 0 01-.609 1.3 1.888 1.888 0 01-.687 1.3c-.686 1.3-1.9 1.981-2.592 3.2a16.716 16.716 0 01-3.277 3.963c-.61 1.22-1.906 1.906-3.2 3.2a11.677 11.677 0 01-3.2 2.593 10.126 10.126 0 01-2.592 1.3 2.4 2.4 0 00-1.373-.687l-1.22-.609c-.686-.61-.686-1.3-1.371-1.983v-3.2c-1.22 1.3-1.906 2.592-2.592 3.2-.61.686-1.906 1.373-2.593 1.983l-1.9 1.3a.673.673 0 01-.687-.687c-1.219 0-1.906-.609-2.592-.609-.61-.61-.61-1.3-1.22-1.983v-2.592a8.356 8.356 0 01.61-3.812c.61-1.371 1.3-2.592 1.983-3.964 1.219-1.219 1.906-2.592 3.2-3.811a18.543 18.543 0 003.887-3.279 11.629 11.629 0 013.277-1.906 2.938 2.938 0 011.906-.686h2.592s1.3.686 1.3 1.3l1.3 1.3c1.9-3.277 3.277-5.87 4.5-8.462 1.371-1.219 1.371-2.592 1.982-3.2a11.042 11.042 0 011.983-3.2c.609-1.371.609-1.981 1.219-2.592V2.611l.686-.61a2.318 2.318 0 011.906.61s.687.609 1.373 1.3c0 1.3.61 1.906.61 3.887 0 .61-.61 1.3-1.3 2.592s-1.3 3.2-1.906 4.574c-1.373 1.906-1.983 3.2-3.279 5.183a26.081 26.081 0 00-3.277 5.793c-1.22 1.983-2.593 3.889-3.2 5.185a36.043 36.043 0 01-3.2 4.573c-.687 1.22-.687 2.593-1.372 3.2zm-11.587 0c.61 0 1.219-.686 2.592-1.3a17.255 17.255 0 002.592-3.2c1.22-1.371 2.592-2.592 3.812-3.963.686-1.22 1.982-3.2 2.592-4.5a7.215 7.215 0 011.372-1.906c.61-1.983.61-1.983 0-1.983a5.3 5.3 0 00-1.983.61 7.414 7.414 0 01-2.592 1.981 10.58 10.58 0 01-1.981 2.593c-1.906 1.981-2.592 3.2-3.812 4.573-.686 1.22-1.373 2.592-1.982 3.812a3.5 3.5 0 00-.61 1.981v1.3z"/><path data-name="Path 270" d="M88.124 19.439l.687-.686c.686 0 1.3.686 1.9.686a9.849 9.849 0 011.983 1.3 4.084 4.084 0 01.61 2.592 5.885 5.885 0 01-.61 3.2 19.435 19.435 0 00-1.983 3.279 17 17 0 00-1.9 3.277 11.891 11.891 0 01-1.3 1.906c-1.3 1.906-1.3 2.592-1.3 2.592l-.686 1.3a7.865 7.865 0 002.592-1.3c1.373-.686 1.983-1.906 3.279-3.277a26.252 26.252 0 003.888-4.5c1.3-1.3 2.592-3.279 3.887-4.5a22 22 0 002.593-5.185l1.3-2.592c0-2.592 0-3.964-.61-4.574a24.368 24.368 0 01-1.983-1.981c-.609-.61-1.3-1.219-1.3-1.219h-2.592V9.07l.686-.686a5.569 5.569 0 013.2.686c1.3.687 1.983 1.3 3.2 1.906a16.81 16.81 0 012.593 3.279c1.371 1.3 1.371 2.592 1.371 4.5a6.74 6.74 0 01-1.371 4.573c-.61 1.3-1.906 2.592-3.2 4.574a31.416 31.416 0 00-4.574 4.5 29.507 29.507 0 00-4.5 3.887 27.371 27.371 0 00-3.887 3.2 8.916 8.916 0 00-1.983 1.373l-.61.61-1.982 1.3c-.61 0-1.219-.687-1.906-.687a13.67 13.67 0 00-1.3-1.906c0-.686-.61-1.3-.61-1.9v-3.964a9.175 9.175 0 001.22-2.592c.686-1.22 1.373-1.906 1.981-3.2a5.132 5.132 0 001.3-3.2 4.944 4.944 0 001.3-3.279 4.084 4.084 0 00.617-2.605z"/><path data-name="Path 271" d="M125.098 25.918h.687c0-.609 0-.609.609 0v1.3c-.609 0-.609.686-1.3 1.3a13.25 13.25 0 00-2.592 3.2c-1.3 1.371-2.592 2.592-3.888 3.963-1.3 1.22-2.591 1.906-3.889 3.2a35.684 35.684 0 01-3.277 2.593 9.468 9.468 0 01-3.812 1.3l-1.981-1.3a2.469 2.469 0 01-1.3-.61 7.533 7.533 0 010-8.462c.686-1.3 1.3-2.592 1.906-3.887a18.5 18.5 0 013.277-3.889c.686-1.3 1.906-1.906 3.278-2.592a4.406 4.406 0 011.9-1.906 7.509 7.509 0 002.593-1.371l1.3.686a2.033 2.033 0 011.3.686c0 .61.686.61.686.61 0 1.981.61 2.592.61 3.887l-1.3 1.906c0 1.373-.687 1.983-1.906 3.279 0 0-1.372 1.3-2.592 2.592a25.345 25.345 0 00-2.592 1.906 5.089 5.089 0 01-2.593 1.371 2.255 2.255 0 01-1.371.61l-.61 1.983c-.61.609-.61.609 0 1.219h.61a3.688 3.688 0 003.277-1.219 11.676 11.676 0 004.5-3.279c1.372-1.3 3.279-2.592 4.574-3.887 1.303-1.987 2.596-3.206 3.896-5.189zm-7.775-1.3a.673.673 0 00-.687.687l-1.219 1.219-1.373 1.373c-.61.61-1.219 1.219-1.219 1.906a13.992 13.992 0 00-3.278 5.183c1.3-1.3 2.592-1.906 3.887-3.277a37.2 37.2 0 002.593-3.2 7.553 7.553 0 011.3-1.983 1.557 1.557 0 00-.006-1.904z"/><path data-name="Path 272" d="M132.872 42.765a5 5 0 01-1.906-1.906 9.263 9.263 0 01-1.373-4.574l.687-1.3c0-.686.685-1.3.685-1.906.61-1.371.61-1.981 1.219-2.592a8.287 8.287 0 011.373-1.981c.61-1.983 1.906-3.2 3.2-5.185 0 0-.61 0-1.3 1.3a13.514 13.514 0 00-3.279 2.593c-1.219 1.3-1.9 2.592-3.2 3.887s-2.592 3.2-3.887 4.573a18.472 18.472 0 01-1.906 3.2c-1.371 1.3-1.371 1.983-1.371 1.983 0 1.219 0 1.219-.61 1.906l-.61-.687-1.373-1.906a5.212 5.212 0 01-.609-1.9v-2.593a30.562 30.562 0 002.592-3.963s1.3-1.906 1.982-3.2a11.507 11.507 0 012.593-3.2c.609-1.373 1.219-2.593 1.219-2.593a9.376 9.376 0 00.686-3.963l.687-.61a.6.6 0 01.609.61c1.3.686 1.3 1.371 1.983 1.981 0 1.3.61 1.981.61 3.2 0 .686 0 1.373-.61 1.373v1.219l-1.367 1.371 4.574-4.574c.61-.61 1.3-1.3 1.982-1.3.61-.686 1.22-1.3 1.22-1.906l1.981-.686.61-.686a2.394 2.394 0 001.373.686 2.47 2.47 0 01.609 1.3 2.146 2.146 0 00.61 1.3v1.906a5.3 5.3 0 01-.61 1.981s-1.3 1.983-1.981 3.2a16.78 16.78 0 00-2.592 3.964c-.61 1.22-1.906 1.906-2.592 3.2-.61 1.3-.61 1.983-1.22 2.592v1.3s1.906-.686 3.2-1.3c.61-1.3 1.981-1.981 3.2-3.887a29.669 29.669 0 003.964-4.5c1.219-1.373 2.592-3.277 3.812-4.574v-.609h1.371v.609a.624.624 0 01-.686.61 2.3 2.3 0 01-.686 1.983 17.311 17.311 0 00-2.593 3.2c-.609.686-1.9 1.981-3.2 3.277a17.932 17.932 0 01-3.2 3.887c-.685.61-1.981 1.983-2.591 2.593-1.373.61-1.983 1.297-3.279 1.297z"/><path data-name="Path 273" d="M173.652 15.551c.687.609.687.609 0 .609v.687h-.609a2.474 2.474 0 01-.61-1.3 7.227 7.227 0 01-1.983-1.3c-.609-.687-1.3-.687-2.592-1.3h-5.793c-1.373 1.983-2.592 3.2-3.277 5.795-1.3 1.981-2.593 3.963-3.889 5.869a23.455 23.455 0 00-3.2 5.87 24.95 24.95 0 00-2.592 4.5 24.551 24.551 0 00-1.371 3.887l.686 1.3a7.914 7.914 0 011.906-1.3c1.371-1.3 1.982-1.981 3.277-3.2 1.3-1.371 3.279-3.277 4.5-4.573 1.373-1.983 2.592-3.2 3.279-5.185 0 0 .686 0 .686-.609h.61a.6.6 0 00.61.609 2.162 2.162 0 00-.61 1.3 18.02 18.02 0 01-1.3 1.3 10.92 10.92 0 01-2.592 3.2c-.687 1.371-1.906 2.592-2.593 3.963-1.3 1.22-2.592 1.906-3.277 3.2a37.008 37.008 0 01-3.2 2.593c-1.3.609-1.982 1.3-2.592 1.3-1.3 0-1.983-.687-2.592-.687 0 0-.61-.609-1.3-1.219l-.687-1.983v-1.981l.687-1.906c.686-1.3.686-1.906 1.3-3.277a38.758 38.758 0 001.982-4.5 11.838 11.838 0 002.592-4.5c1.22-1.371 1.906-3.277 3.2-4.573a18.345 18.345 0 012.591-5.185 5.22 5.22 0 01-2.591.61h-2.592c-1.3 0-2.592-.61-3.887-.61l-1.906-.609-1.372-1.373a1.888 1.888 0 01-.61-1.219 5.741 5.741 0 01-.609-1.983 1.888 1.888 0 011.219.61s1.372.686 2.592 1.373a10.435 10.435 0 004.574.609h5.793a25.439 25.439 0 003.964-6.479c.61-1.3 1.219-2.592 1.219-2.592 0-1.3 0-1.3.687-1.3a2 2 0 011.3.609 5.328 5.328 0 011.981 1.983c0 .609.61 1.3.61 2.592 0 .61-.61 1.3-.61 1.981a9.552 9.552 0 01-1.371 2.593h1.371a8.37 8.37 0 013.812.609 2.866 2.866 0 011.981.61c1.3 1.373 1.983 1.981 2.593 2.592z"/><path data-name="Path 274" d="M170.454 42.766c-.609 0-1.3-.687-1.981-1.3-.61-.61-.61-1.3-1.219-1.983v-2.592a5.23 5.23 0 01.609-2.592 31.206 31.206 0 01-3.2 4.573s-.686.61-1.371 1.3c0 0-.61.687-1.22 1.3l-1.373.609-1.219.687a2.4 2.4 0 01-1.372-.687 2.131 2.131 0 01-1.219-.609c-.687-.61-.687-1.3-1.373-1.983v-1.906a4.614 4.614 0 01.686-2.592c.687-.686 1.3-1.906 1.906-2.592.687-1.3 1.372-2.592 1.983-3.887a18.337 18.337 0 001.982-3.2c.61-1.373 1.22-2.593 1.22-2.593a6.53 6.53 0 011.371-2.592c0-1.371 0-1.371.61-1.371a2.092 2.092 0 001.3.686l1.3 1.906a2.64 2.64 0 01.61 1.981 9.009 9.009 0 01-1.219 2.592 5.663 5.663 0 01-1.983 3.889c-.61 1.3-1.3 2.592-1.981 3.887a15.411 15.411 0 00-2.593 3.2 5.739 5.739 0 00-.609 1.981 5.3 5.3 0 00-.61 1.983s1.219-.687 2.592-1.373a10.415 10.415 0 012.592-3.2 26.827 26.827 0 003.812-4.573c1.372-1.22 2.591-3.2 3.964-4.5.61-1.906 1.906-3.279 2.592-4.5.61-1.371 1.22-2.592 1.22-2.592 0-1.371 0-1.371.686-1.371 0 .686.686.686 1.3 1.371 0 0 .61.61 1.3 1.22a3.218 3.218 0 01.686 1.981c0 1.3-.686 1.983-1.371 3.2a11.636 11.636 0 01-1.906 3.279c-.686 1.3-1.3 2.592-1.906 3.887a33.936 33.936 0 00-2.592 3.2 5.25 5.25 0 00-.686 1.981c-.687 1.3-.687 1.983 0 1.983a2.38 2.38 0 011.3-.687 23.178 23.178 0 011.981-1.9 26.818 26.818 0 012.592-2.593 18.123 18.123 0 002.592-3.277 15.811 15.811 0 002.593-3.279c.609-1.219 1.906-1.9 2.592-3.2l.61-.609h.609v.609a2.153 2.153 0 01-.609 1.3 2 2 0 01-.61 1.3c-.686 1.3-1.983 1.981-2.592 3.2a8 8 0 01-3.279 3.277 16.465 16.465 0 01-3.277 3.887 6.046 6.046 0 01-3.2 2.593 5.221 5.221 0 01-2.62 1.291z"/><path data-name="Path 275" d="M205.447 25.918l.685-.609h.61v1.906a18.076 18.076 0 01-1.3 1.3 10.9 10.9 0 01-2.592 3.2c-.687 1.371-1.906 2.592-2.592 3.963-1.3 1.22-2.593 1.906-3.889 3.2-.609 1.3-1.981 1.983-2.591 2.593-1.3.609-1.982 1.3-2.592 1.3-1.3 0-1.982-.687-2.592-.687 0 0-.61-.609-1.3-1.219l-.687-1.983v-1.981a6.4 6.4 0 01.687-2.592 11.137 11.137 0 011.3-2.592 12.21 12.21 0 011.981-3.2 11.066 11.066 0 011.906-3.2 6.806 6.806 0 00-2.592.609c-1.3 0-2.592.61-3.888.61l-.61-.61s-1.372 0-1.372-.609a8.447 8.447 0 00-1.219-1.983v-3.2a11.677 11.677 0 01.609-4.573 10.431 10.431 0 012.593-4.574 135.66 135.66 0 011.982-1.906c1.906-1.3 2.592-1.3 2.592-1.3 1.906 0 2.592 0 3.2.61.61.686.61 1.373.61 2.592v1.373l-.61 1.906c-.61.686-.61 1.3-1.3 1.9a9.855 9.855 0 01-1.3 2.593 19.206 19.206 0 01-3.2 4.573l2.592-1.3a8.612 8.612 0 002.592-1.3 4.821 4.821 0 011.906-.61c.687-.686.687-.686 1.3-1.371a2.031 2.031 0 011.3.686l.687.686 1.219 1.22a2.442 2.442 0 01.687 1.981l-.687 1.983-1.906 1.906c-.686 1.3-1.3 2.592-1.3 2.592a46.426 46.426 0 01-2.591 3.887 4.013 4.013 0 00-1.3 2.592 4.013 4.013 0 00-1.3 2.592l1.3 1.3a7.92 7.92 0 011.906-1.3c1.372-.609 1.981-1.981 3.277-3.2 1.3-1.371 2.593-3.277 3.889-4.573 1.306-1.979 2.6-3.195 3.9-5.181zm-19.439-5.793v.61l.609 1.3a.672.672 0 00.687.686 16.924 16.924 0 011.906-3.277l1.371-2.592c.61-1.3.61-2.592 1.22-2.592l-.61-1.3-1.3 1.3-1.906 1.3c-.686 1.3-.686 1.981-1.373 2.592z"/><path data-name="Path 276" d="M222.291 25.918h.61c0-.609.686-.609.686 0v1.3c-.686 0-.686.686-1.3 1.3-.61 1.3-1.981 1.981-2.592 3.2-1.3 1.371-2.592 2.592-3.888 3.963-.687 1.22-1.906 1.906-3.279 3.2a12.551 12.551 0 01-3.811 2.593 10.122 10.122 0 01-3.964 1.3c-.61 0-1.22-.687-1.906-1.3l-1.3-1.3a5.166 5.166 0 01-1.3-3.277 9.77 9.77 0 011.3-4.5c.609-1.3 1.3-2.592 1.982-3.887 1.22-1.3 1.906-2.593 3.2-3.889.61-1.3 1.983-1.906 3.2-2.592a3.525 3.525 0 012.592-1.906 7 7 0 001.983-1.371l1.3.686a1.89 1.89 0 011.3.686.6.6 0 00.61.61c0 1.981.686 2.592.686 3.887l-.686 1.906c-.61 1.373-1.22 1.983-1.906 3.279a5.351 5.351 0 00-2.591 2.592c-1.3.686-1.906 1.3-3.279 1.906a8.47 8.47 0 01-1.906 1.371 5.205 5.205 0 01-1.906.61 1.89 1.89 0 00-.686 1.3v1.3l1.3.61c.61 0 1.3 0 3.2-1.219a18.838 18.838 0 003.964-3.279 29.506 29.506 0 004.5-3.887c1.296-1.99 2.592-3.209 3.887-5.192zm-7.775-1.3l-.61.687a.623.623 0 00-.686.609l-1.3 1.3c-1.3 1.3-1.3 1.9-1.981 2.592-1.219 1.3-1.906 3.277-3.2 5.183 1.3-1.3 2.592-1.906 3.888-3.277a9.042 9.042 0 001.906-2.593c1.983-1.9 1.983-2.592 1.983-2.592a1.708 1.708 0 000-1.905z"/></g></svg>